<?xml version="1.0" encoding="UTF-8"?><svg id="a" xmlns="http://www.w3.org/2000/svg" viewBox="0 0 348.55 80.75"><path d="M1.51,53.24l5.54-7.78c3.38,3.53,8.64,6.48,15.27,6.48,5.62,0,8.35-2.59,8.35-5.33,0-8.5-27.65-2.66-27.65-20.74,0-7.99,6.91-14.62,18.22-14.62,7.63,0,13.97,2.3,18.72,6.7l-5.69,7.49c-3.89-3.6-9.07-5.26-13.97-5.26-4.39,0-6.84,1.94-6.84,4.82,0,7.63,27.58,2.52,27.58,20.45,0,8.79-6.26,15.41-19.23,15.41-9.22,0-15.84-3.1-20.31-7.63Z" fill="#231f20"/><path d="M48.53,51.37v-18.15h-5.76v-7.99h5.76V15.73h9.22v9.5h7.06v7.99h-7.06v15.7c0,2.16,1.15,3.82,3.17,3.82,1.37,0,2.66-.5,3.17-1.01l1.94,6.91c-1.37,1.22-3.82,2.23-7.63,2.23-6.41,0-9.86-3.31-9.86-9.5Z" fill="#231f20"/><path d="M68.83,42.59c0-10.08,7.42-18.22,18-18.22s17.43,7.78,17.43,19.15v2.02h-25.85c.58,4.39,4.1,8.06,10.01,8.06,2.95,0,7.06-1.3,9.29-3.46l4.03,5.9c-3.46,3.17-8.93,4.82-14.33,4.82-10.58,0-18.58-7.13-18.58-18.29Zm18-10.95c-5.69,0-8.14,4.25-8.57,7.7h17.14c-.22-3.31-2.52-7.7-8.57-7.7Z" fill="#231f20"/><path d="M112.9,60.01v-26.79h-5.76v-7.99h5.76v-1.87c0-7.42,4.75-12.1,11.74-12.1,3.31,0,6.84,.86,9.07,3.24l-3.46,5.4c-.94-.94-2.16-1.44-3.82-1.44-2.52,0-4.32,1.66-4.32,4.9v1.87h7.06v7.99h-7.06v26.79h-9.22Zm23.55,0v-26.79h-5.76v-7.99h5.76v-1.87c0-7.42,4.75-12.1,11.74-12.1,3.31,0,6.84,.86,9.07,3.24l-3.46,5.4c-.94-.94-2.16-1.44-3.82-1.44-2.52,0-4.32,1.66-4.32,4.9v1.87h7.06v7.99h-7.06v26.79h-9.22Z" fill="#231f20"/><path d="M155.81,42.59c0-10.08,7.42-18.22,18-18.22s17.43,7.78,17.43,19.15v2.02h-25.85c.58,4.39,4.1,8.06,10.01,8.06,2.95,0,7.06-1.3,9.29-3.46l4.03,5.9c-3.46,3.17-8.93,4.82-14.33,4.82-10.58,0-18.58-7.13-18.58-18.29Zm18-10.95c-5.69,0-8.14,4.25-8.57,7.7h17.14c-.22-3.31-2.52-7.7-8.57-7.7Z" fill="#231f20"/><path d="M221.33,60.01v-21.03c0-4.82-2.52-6.48-6.41-6.48-3.6,0-6.41,2.02-7.92,4.1v23.4h-9.15V25.23h9.15v4.54c2.23-2.66,6.48-5.4,12.17-5.4,7.63,0,11.3,4.32,11.3,11.09v24.55h-9.14Z" fill="#231f20"/><path d="M291.31,60.01l-2.95-8.14h-20.59l-3.02,8.14h-11.67l18.58-48.03h12.82l18.5,48.03h-11.67Zm-13.25-37.8l-7.49,20.67h14.98l-7.49-20.67Z" fill="#231f20"/><path d="M335.95,60.01l-14.54-19.23-3.74,4.46v14.76h-10.23V11.98h10.23v21.46l16.99-21.46h12.6l-19.08,22.54,20.38,25.49h-12.6Z" fill="#231f20"/></svg>