<?xml version="1.0" encoding="UTF-8"?><svg id="a" xmlns="http://www.w3.org/2000/svg" viewBox="0 0 175.91 261"><polygon points="27.46 86.98 0 65.25 0 195.75 27.46 176.17 27.46 86.98" fill="#2e2e2e"/><polygon points="147.69 86.98 175.91 65.25 87.95 0 87.57 42.38 147.69 86.98" fill="#0b0b0b"/><polygon points="87.57 42.38 87.95 0 0 65.25 27.46 86.98 87.57 42.38" fill="#1f1f1f"/><polygon points="147.69 86.98 147.69 176.17 175.91 195.75 175.91 65.25 147.69 86.98" fill="#1f1f1f"/><polygon points="27.46 176.17 0 195.75 87.95 261 87.57 220.77 27.46 176.17" fill="#5d5d5d"/><polygon points="87.57 220.77 87.95 261 175.91 195.75 147.69 176.17 87.57 220.77" fill="#474748"/><polygon points="27.46 86.98 27.46 176.17 87.57 220.77 147.69 176.17 147.69 86.98 87.57 42.38 27.46 86.98" fill="#333"/></svg>