<?xml version="1.0" encoding="utf-8"?>
<!-- Generator: Adobe Illustrator 26.0.2, SVG Export Plug-In . SVG Version: 6.00 Build 0)  -->
<svg version="1.1" id="Layer_1" xmlns="http://www.w3.org/2000/svg" xmlns:xlink="http://www.w3.org/1999/xlink" x="0px" y="0px"
	 viewBox="0 0 338.6 103.3" style="enable-background:new 0 0 338.6 103.3;" xml:space="preserve">
<style type="text/css">
	.st0{fill:#446D37;}
</style>
<g>
	<path class="st0" d="M41,85.2c0,4,3.2,7.2,7.2,7.2s7.2-3.2,7.2-7.2S52.2,78,48.2,78S41,81.2,41,85.2"/>
	<path class="st0" d="M51.8,16.1c0-4-1.6-7.2-3.6-7.2s-3.6,3.2-3.6,7.2s1.6,7.2,3.6,7.2S51.8,20,51.8,16.1"/>
	<path class="st0" d="M69.2,22.8c2-3.4,2-7.2,0-8.3c-2-1.2-5.3,0.7-7.2,4.1c-2,3.4-2,7.2,0,8.3C63.9,28.1,67.2,26.2,69.2,22.8"/>
	<path class="st0" d="M80.6,37.5c3.4-2,5.2-5.5,3.8-7.8c-1.3-2.3-5.2-2.5-8.6-0.6c-3.4,2-5.2,5.5-3.8,7.8
		C73.3,39.3,77.1,39.5,80.6,37.5"/>
	<path class="st0" d="M59.8,83.9c2,3.4,6.2,4.8,9.3,2.9c3.2-1.8,4.1-6.1,2.1-9.5s-6.2-4.8-9.3-2.9C58.7,76.2,57.8,80.4,59.8,83.9"/>
	<path class="st0" d="M82.8,56c4,0,7.2-2.4,7.2-5.4s-3.2-5.4-7.2-5.4s-7.2,2.4-7.2,5.4C75.6,53.6,78.8,56,82.8,56"/>
	<path class="st0" d="M75.2,73.1c3.4,2,7.6,1.3,9.2-1.6c1.7-2.9,0.2-6.8-3.2-8.8c-3.4-2-7.6-1.3-9.2,1.6
		C70.3,67.2,71.7,71.1,75.2,73.1"/>
	<path class="st0" d="M27.2,22.8c-2-3.4-2-7.2,0-8.3c2-1.2,5.3,0.7,7.2,4.1c2,3.4,2,7.2,0,8.3C32.5,28.1,29.2,26.2,27.2,22.8"/>
	<path class="st0" d="M15.8,37.5c-3.4-2-5.2-5.5-3.8-7.8c1.3-2.3,5.2-2.5,8.6-0.6c3.4,2,5.2,5.5,3.8,7.8
		C23.1,39.3,19.3,39.5,15.8,37.5"/>
	<path class="st0" d="M36.6,83.9c-2,3.4-6.2,4.8-9.3,2.9c-3.2-1.8-4.1-6.1-2.1-9.5s6.2-4.8,9.3-2.9C37.6,76.2,38.6,80.4,36.6,83.9"
		/>
	<path class="st0" d="M13.6,56c-4,0-7.2-2.4-7.2-5.4s3.2-5.4,7.2-5.4s7.2,2.4,7.2,5.4S17.6,56,13.6,56"/>
	<path class="st0" d="M21.2,73.1c-3.4,2-7.6,1.3-9.2-1.6c-1.7-2.9-0.2-6.8,3.2-8.8c3.4-2,7.6-1.3,9.2,1.6
		C26.1,67.2,24.7,71.1,21.2,73.1"/>
	<path class="st0" d="M285,51.5c5.3,0,8.4-3.1,8.4-7.1c0-3.5-2.1-5.5-7.1-6.5c-3.3-0.7-5-1.6-5-3c0-1.3,1.5-1.9,3.2-1.9
		c2.2,0,3.9,1.4,4.8,3.7l3.9-2.3c-1.7-3.6-4.1-5.3-8.8-5.3c-4.1,0-7.9,2.2-7.9,6.2c0,3.8,3.2,5.8,7.4,6.6c3.1,0.6,4.5,1.3,4.5,2.7
		c0,1.5-1.7,2.3-3.3,2.3c-2.7,0-4.6-1.9-5.5-4.6l-4.3,2.7C276.7,48.4,279.7,51.5,285,51.5 M262.6,50.9h5.4V40.5
		c0-3.6,1.9-6.3,5.1-6.3c0.7,0,1.3,0.1,1.8,0.3l0.9-5.1c-0.6-0.2-1.2-0.3-1.8-0.3c-2.7,0-4.7,1.5-5.9,4v-3.4h-5.4v21.2H262.6z
		 M243.3,37.5c0.8-2.4,2.9-4.3,5.7-4.3c3,0,5,1.6,5.5,4.3H243.3z M249,51.5c4.7,0,7.9-1.9,10-6.2l-4-2.3c-1.3,2.5-3,3.9-5.9,3.9
		c-3.2,0-5.5-2.1-5.8-5.3h16.3v-1.9c0-6.2-4.3-10.6-10.3-10.6c-6.2,0-11.2,4.5-11.2,11.2S243.1,51.5,249,51.5 M234,51.5
		c1.2,0,2.6-0.3,3.6-0.6l-0.5-4.4c-0.4,0.1-1,0.3-1.8,0.3c-1.6,0-2.7-0.8-2.7-3v-9.7h4.6v-4.4h-4.6V24h-5.4v5.7h-3.3v4.4h3.3v10.7
		C227.2,50,230.4,51.5,234,51.5 M219.4,51.5c1.2,0,2.6-0.3,3.6-0.6l-0.5-4.4c-0.4,0.1-1,0.3-1.8,0.3c-1.6,0-2.7-0.8-2.7-3v-9.7h4.6
		v-4.4H218V24h-5.4v5.7h-3.3v4.4h3.3v10.7C212.6,50,215.7,51.5,219.4,51.5 M196.9,47.2c-1.9,0-3.2-0.9-3.2-2.6
		c0-1.7,1.2-2.7,3.5-3.1l5.1-0.9V41C202.4,45.1,200,47.2,196.9,47.2 M195.6,51.5c3,0,5.6-1.3,7.1-4c0,1.8,0.7,2.9,1,3.4h5.5
		c-1-1.5-1.4-2.8-1.4-5.3v-8.8c0-5.2-3.3-7.7-9.3-7.7c-5.7,0-8.9,3.2-8.9,6.5c0,0.6,0.1,1.2,0.4,1.8l4.8-1.6
		c-0.1-0.3-0.1-0.3-0.1-0.5c0-1.3,1.3-2.4,3.8-2.4c2.6,0,3.9,1.2,3.9,3.2v0.8l-6.4,1c-4,0.6-7.6,2.7-7.6,7
		C188.4,48.9,191.4,51.5,195.6,51.5 M154.7,50.9h5.5V32.6c0.5,1.8,0.8,3.1,1.5,4.6l5.9,13.7h5.4l5.9-13.7c0.6-1.5,1-2.7,1.5-4.6
		v18.3h5.5V21H180l-9.5,23.8L160.7,21h-5.9v29.9H154.7z M145.3,50.9h5.4V21h-5.4V50.9z M135.8,50.9h5.4V21h-5.4V50.9z M115.5,38.1
		l2.7-7.2c0,0,0.6-1.5,1.1-3.2c0.6,1.8,1.1,3.2,1.1,3.2l2.7,7.2H115.5z M104.6,50.9h6l3-7.8h11.5l3,7.8h6l-12-29.9h-5.4L104.6,50.9z
		"/>
</g>
<g>
	<path class="st0" d="M106.7,64.9H117v1.8h-8.2v6.2h6.4v1.8h-6.4v7.9h-2.1C106.7,82.6,106.7,64.9,106.7,64.9z"/>
	<path class="st0" d="M117.9,76.2V76c0-3.9,2.7-6.6,6.3-6.6s6.3,2.7,6.3,6.6v0.2c0,3.9-2.7,6.6-6.4,6.6
		C120.5,82.7,117.9,80,117.9,76.2z M128.4,76.2V76c0-3-1.7-4.9-4.2-4.9c-2.6,0-4.2,1.9-4.2,4.9v0.2c0,2.9,1.6,4.9,4.2,4.9
		C126.8,81,128.4,79.1,128.4,76.2z"/>
	<path class="st0" d="M133.2,69.6h2v2.3c0.8-1.5,1.9-2.5,4.2-2.5v1.9c-2.6,0.1-4.2,0.9-4.2,4.1v7.1h-2V69.6z"/>
	<path class="st0" d="M142,69.6h2v2c0.6-1.2,2-2.2,3.8-2.2c1.7,0,3.1,0.7,3.8,2.4c0.9-1.7,2.8-2.4,4.4-2.4c2.3,0,4.3,1.4,4.3,5.1v8
		h-2v-8.1c0-2.3-1-3.2-2.7-3.2s-3.4,1.1-3.4,3.5v7.9h-2v-8.1c0-2.3-1-3.2-2.7-3.2s-3.4,1.1-3.4,3.5v7.9h-2V69.6H142z"/>
	<path class="st0" d="M163,76.2V76c0-3.9,2.5-6.6,6-6.6c3,0,5.8,1.8,5.8,6.4v0.7h-9.7c0.1,2.9,1.5,4.6,4.1,4.6c2,0,3.2-0.7,3.4-2.2
		h2c-0.4,2.6-2.6,3.9-5.5,3.9C165.6,82.7,163,80.2,163,76.2z M172.7,74.8c-0.2-2.7-1.6-3.7-3.7-3.7c-2.1,0-3.5,1.4-3.8,3.7H172.7z"
		/>
	<path class="st0" d="M177.5,69.6h2v2.3c0.8-1.5,1.9-2.5,4.2-2.5v1.9c-2.6,0.1-4.2,0.9-4.2,4.1v7.1h-2V69.6z"/>
	<path class="st0" d="M186.3,63.5h2.1v19.1h-2.1V63.5z"/>
	<path class="st0" d="M195.6,81.2l-5.1-11.6h2.2l3.9,9.2l3.6-9.2h2.1l-7,17.4h-2.1L195.6,81.2z"/>
	<path class="st0" d="M209.9,73.8v-0.2c0-5,3.5-9,8.7-9s8.6,3.9,8.6,8.9v0.2c0,5-3.4,9-8.6,9C213.4,82.7,209.9,78.7,209.9,73.8z
		 M225,73.7v-0.2c0-3.9-2.3-7.2-6.4-7.2c-4.1,0-6.5,3-6.5,7.2v0.2c0,4.3,2.8,7.2,6.5,7.2C222.6,81,225,78,225,73.7z"/>
	<path class="st0" d="M230.1,69.6h2v2.3c0.8-1.5,1.9-2.5,4.2-2.5v1.9c-2.6,0.1-4.2,0.9-4.2,4.1v7.1h-2V69.6z"/>
	<path class="st0" d="M237.9,83.3h2.1c0.3,1.5,1.5,2.2,3.7,2.2c2.5,0,4.1-1.2,4.1-4v-1.9c-0.7,1.3-2.5,2.4-4.4,2.4
		c-3.4,0-5.9-2.6-5.9-6.1v-0.2c0-3.5,2.5-6.4,6-6.4c2.1,0,3.5,1,4.2,2.3v-2.1h2v12c0,3.7-2.6,5.6-6.2,5.6
		C239.9,87.2,238.2,85.4,237.9,83.3z M247.9,75.8v-0.2c0-2.9-1.6-4.6-4.1-4.6c-2.6,0-4.1,1.9-4.1,4.6v0.2c0,2.8,1.8,4.5,4,4.5
		C246.1,80.4,247.9,78.7,247.9,75.8z"/>
	<path class="st0" d="M252.4,78.9c0-3,3.2-4,6.5-4h1.8V74c0-2-0.8-2.9-2.8-2.9c-1.8,0-2.8,0.7-3,2.3h-2c0.3-2.9,2.6-4,5.1-4
		s4.7,1,4.7,4.6v8.5h-2v-1.6c-1,1.2-2.1,1.8-4,1.8C254.3,82.7,252.4,81.6,252.4,78.9z M260.8,78v-1.6H259c-2.6,0-4.5,0.6-4.5,2.5
		c0,1.3,0.6,2.2,2.4,2.2C259.1,81.1,260.8,80,260.8,78z"/>
	<path class="st0" d="M266.3,69.6h2v2c0.6-1.2,2-2.3,4.1-2.3c2.7,0,4.5,1.5,4.5,5.2v7.9h-2v-8.1c0-2.3-1-3.3-3-3.3
		c-1.9,0-3.6,1.2-3.6,3.5v7.8h-2V69.6z"/>
	<path class="st0" d="M280.3,65.6c0-0.7,0.6-1.4,1.4-1.4c0.7,0,1.4,0.6,1.4,1.4c0,0.7-0.6,1.4-1.4,1.4
		C280.9,66.9,280.3,66.3,280.3,65.6z M280.6,69.6h2v12.9h-2V69.6z"/>
	<path class="st0" d="M285.7,73.8v-0.2c0-5.2,3.5-9,8.3-9c3.7,0,6.8,1.9,7.2,5.8H299c-0.4-2.7-2-4.1-5-4.1c-3.6,0-6.1,2.8-6.1,7.3
		v0.2c0,4.5,2.3,7.2,6.1,7.2c2.9,0,4.9-1.5,5.3-4.3h2c-0.6,4.1-3.4,6.1-7.4,6.1C288.8,82.7,285.7,79.2,285.7,73.8z"/>
	<path class="st0" d="M303.8,77.8v-8.2h2v8.1c0,2.3,1,3.3,3,3.3c1.8,0,3.6-1.2,3.6-3.5v-7.8h2v12.9h-2v-2c-0.6,1.2-2,2.3-4.1,2.3
		C305.7,82.7,303.8,81.3,303.8,77.8z"/>
	<path class="st0" d="M318,69.6h2v2.2c0.7-1.3,2.5-2.4,4.4-2.4c3.4,0,5.9,2.5,5.9,6.5v0.2c0,3.9-2.3,6.7-5.9,6.7
		c-2.1,0-3.6-1.1-4.4-2.3V87h-2V69.6z M328.2,76.2V76c0-3.3-1.8-4.9-4-4.9c-2.4,0-4.2,1.6-4.2,4.9v0.2c0,3.3,1.7,4.9,4.2,4.9
		C326.8,81,328.2,79.3,328.2,76.2z"/>
</g>
</svg>
